<?xml version="1.0" encoding="UTF-8"?>
<svg width="1200pt" height="1200pt" version="1.1" fill="green" viewBox="0 0 1200 1200" xmlns="http://www.w3.org/2000/svg">
 <path d="m1049.2 262.13c-9.7422 0.28906-18.988 4.3633-25.781 11.352l-573.49 573.49-273.49-273.49c-6.9844-7.2539-16.59-11.395-26.66-11.492-10.07-0.09375-19.754 3.8633-26.875 10.984-7.1211 7.1211-11.078 16.805-10.984 26.875 0.097656 10.07 4.2383 19.68 11.492 26.66l300 300c7.0312 7.0312 16.57 10.98 26.516 10.98 9.9414 0 19.48-3.9492 26.512-10.98l600-600c7.2695-7.0625 11.367-16.77 11.363-26.906-0.003907-10.133-4.1094-19.836-11.383-26.895-7.2734-7.0625-17.094-10.875-27.227-10.578z"/>
</svg>
