<?xml version="1.0" encoding="UTF-8"?>
<svg width="1200pt" height="1200pt" version="1.1" fill="#7F7680" viewBox="0 0 1200 1200" xmlns="http://www.w3.org/2000/svg">
 <g>
  <path d="m603.6 236.4h-247.2c-66 0-120 54-120 120v247.2c0 66 54 120 120 120h247.2c66 0 120-54 120-120l0.003906-247.2c0-66-54-120-120-120zm72 367.2c0 39.602-32.398 72-72 72h-247.2c-39.602 0-72-32.398-72-72v-247.2c0-39.602 32.398-72 72-72h247.2c39.602 0 72 32.398 72 72z"/>
  <path d="m843.6 915.6h-247.2c-39.602 0-72-32.398-72-72v-48h-48v48c0 66 54 120 120 120h247.2c66 0 120-54 120-120l0.003906-247.2c0-66-54-120-120-120h-48v48h48c39.602 0 72 32.398 72 72v247.2c0 39.602-32.402 72.004-72 72.004z"/>
 </g>
</svg>
